<svg width="230" height="22" viewBox="0 0 230 22" fill="none" xmlns="http://www.w3.org/2000/svg">
<path d="M6 21L0.3 1.2H5.79L9.15 16.83L12.69 1.2H17.37L21 16.8L24.3 1.2H29.61L23.88 21H18.27L15.93 11.4L15.03 6.57H14.97L14.1 11.4L11.79 21H6ZM32.1021 21V1.2H47.5221V5.19H37.2621V9.21H45.4221V12.96H37.2621V17.01H47.9121V21H32.1021ZM51.0279 21V1.2H60.6579C63.0979 1.2 64.8979 1.66 66.0579 2.58C67.2179 3.5 67.7979 4.82 67.7979 6.54C67.7979 7.66 67.4679 8.63 66.8079 9.45C66.1479 10.27 65.1379 10.78 63.7779 10.98V11.01C65.2979 11.21 66.4279 11.74 67.1679 12.6C67.9279 13.44 68.3079 14.46 68.3079 15.66C68.3079 17.36 67.6979 18.68 66.4779 19.62C65.2779 20.54 63.4879 21 61.1079 21H51.0279ZM56.0079 9.3H59.7579C61.5979 9.3 62.5179 8.58 62.5179 7.14C62.5179 5.7 61.5979 4.98 59.7579 4.98H56.0079V9.3ZM56.0079 17.37H60.2379C62.0979 17.37 63.0279 16.63 63.0279 15.15C63.0279 13.71 62.0979 12.99 60.2379 12.99H56.0079V17.37ZM79.9357 1.2C83.0357 1.2 85.4057 2.06 87.0457 3.78C88.7057 5.5 89.5357 7.94 89.5357 11.1C89.5357 14.26 88.7057 16.7 87.0457 18.42C85.4057 20.14 83.0357 21 79.9357 21H71.5357V1.2H79.9357ZM79.4257 17.1C81.1057 17.1 82.3257 16.6 83.0857 15.6C83.8657 14.58 84.2557 13.08 84.2557 11.1C84.2557 9.12 83.8657 7.63 83.0857 6.63C82.3257 5.61 81.1057 5.1 79.4257 5.1H76.6957V17.1H79.4257ZM93.0689 21V1.2H108.489V5.19H98.2289V9.21H106.389V12.96H98.2289V17.01H108.879V21H93.0689ZM130.115 1.2L123.095 21H117.035L109.985 1.2H115.415L119.045 13.17L120.125 17.07L121.175 13.23L124.865 1.2H130.115ZM140.136 21.3C138.376 21.3 136.806 20.91 135.426 20.13C134.066 19.35 133.006 18.2 132.246 16.68C131.486 15.16 131.106 13.31 131.106 11.13C131.106 9.01 131.506 7.19 132.306 5.67C133.106 4.13 134.246 2.95 135.726 2.13C137.226 1.31 138.986 0.899999 141.006 0.899999C143.266 0.899999 145.076 1.31 146.436 2.13C147.816 2.93 148.886 4.21 149.646 5.97L144.876 7.86C144.616 6.84 144.156 6.1 143.496 5.64C142.836 5.18 142.016 4.95 141.036 4.95C139.556 4.95 138.406 5.48 137.586 6.54C136.786 7.58 136.386 9.1 136.386 11.1C136.386 13.22 136.796 14.8 137.616 15.84C138.436 16.86 139.666 17.37 141.306 17.37C142.446 17.37 143.396 17.1 144.156 16.56C144.916 16.02 145.296 15.19 145.296 14.07V13.77H140.766V10.32H149.676V21H146.166L145.956 18.57C145.396 19.45 144.626 20.13 143.646 20.61C142.686 21.07 141.516 21.3 140.136 21.3ZM170.936 1.2V12.93C170.936 18.51 167.986 21.3 162.086 21.3C159.186 21.3 156.986 20.61 155.486 19.23C153.986 17.83 153.236 15.73 153.236 12.93V1.2H158.426V13.02C158.426 15.84 159.646 17.25 162.086 17.25C164.546 17.25 165.776 15.84 165.776 13.02V1.2H170.936ZM191.574 1.2V5.19H185.124V21H179.964V5.19H173.484V1.2H191.574ZM211.174 1.2V5.19H204.724V21H199.564V5.19H193.084V1.2H211.174ZM209.563 21L216.523 1.2H222.703L229.633 21H224.323L222.973 16.53H216.133L214.753 21H209.563ZM218.713 8.25L217.213 13.02H221.893L220.453 8.28L219.583 5.16H219.523L218.713 8.25Z" fill="#D91921"/>
</svg>
